<svg xmlns="http://www.w3.org/2000/svg" width="278.478" height="64" viewBox="0 0 278.478 64">
  <g id="td-logo" transform="translate(-156.522 -307)">
    <g id="ophtalmologist" transform="translate(156.522 311.261)">
      <g id="Group_1" data-name="Group 1" transform="translate(3.522 16.881)">
        <path id="Path_1" data-name="Path 1" d="M32.247,144.25v5.2S26.442,146.446,32.247,144.25Z" transform="translate(-29.667 -144.25)" fill="#edb288"/>
        <path id="Path_2" data-name="Path 2" d="M267.8,149.45s5.805-3,0-5.2v5.2" transform="translate(-239.53 -144.25)" fill="#edb288"/>
      </g>
      <path id="Path_3" data-name="Path 3" d="M181.291,329v.368H162v-15.8l4.345-4.214h6.078a8.4,8.4,0,0,1,5.022,1.674l.19.119a13.1,13.1,0,0,0-2.042,7.075A12.769,12.769,0,0,0,181.291,329Zm-8.939-9.984a2.915,2.915,0,0,0-.867-2.042,2.71,2.71,0,0,0-2.042-.867h-.059a2.913,2.913,0,0,0-2.042,4.962,3.068,3.068,0,0,0,2.042.867h.059A2.916,2.916,0,0,0,172.352,319.013Z" transform="translate(-142.768 -272.869)" fill="#d4e1f4"/>
      <path id="Path_4" data-name="Path 4" d="M132.509,20.358H115.2A4.16,4.16,0,0,1,111.3,16.2a3.689,3.689,0,0,1,.439-1.8,4.7,4.7,0,0,1,.748-1.175,4.271,4.271,0,0,1,2.98-1.175h8.678a8.3,8.3,0,0,1,8.369,8.251Z" transform="translate(-98.082 -10.861)" fill="#4b5d63"/>
      <path id="Path_5" data-name="Path 5" d="M81.68,82.05V94.325a12.359,12.359,0,0,1-8,11.48,12.577,12.577,0,0,1-4.345.748,12.022,12.022,0,0,1-8.678-3.6A12.224,12.224,0,0,1,57,94.337V87.012A11.454,11.454,0,0,0,67.352,82.05Z" transform="translate(-50.233 -72.553)" fill="#f7caa5"/>
      <path id="Path_6" data-name="Path 6" d="M204.83,367.114a2.959,2.959,0,0,1,.867,2.042,2.918,2.918,0,0,1-2.92,2.92h-.059a3.044,3.044,0,0,1-2.042-.867,2.915,2.915,0,0,1,2.042-4.962h.059A2.718,2.718,0,0,1,204.83,367.114Z" transform="translate(-176.114 -323.012)" fill="#00efd1"/>
      <path id="Path_7" data-name="Path 7" d="M136.381,285.22h0l-4.345,4.214L128,285.22h0v-3.039a11.5,11.5,0,0,0,3.906.617,12.35,12.35,0,0,0,4.345-.748l.119.249v2.92Z" transform="translate(-112.805 -248.81)" fill="#edb288"/>
      <path id="Path_8" data-name="Path 8" d="M14.727,309.25h5.58l4.036,4.214v15.813H5.8V317.631a8.436,8.436,0,0,1,8.441-8.369h.487Z" transform="translate(-5.111 -272.781)" fill="#d4e1f4"/>
      <path id="Path_9" data-name="Path 9" d="M67.352,37.8h0A11.462,11.462,0,0,1,57,42.759V37.8s.867-6.078,6.885-5.959a3.689,3.689,0,0,0-.439,1.8A4.16,4.16,0,0,0,67.352,37.8Z" transform="translate(-50.233 -28.3)" fill="#4b5d63"/>
      <g id="Group_2" data-name="Group 2" transform="translate(0 0)">
        <path id="Path_10" data-name="Path 10" d="M93.939,145.573a3.159,3.159,0,0,1-3.039-3.039v-.558a.927.927,0,0,1,.926-.926h0a.927.927,0,0,1,.926.926h0v.558a1.3,1.3,0,0,0,1.175,1.175,1.17,1.17,0,0,0,1.175-1.175h0v-.558a.927.927,0,0,1,.926-.926h0a.927.927,0,0,1,.926.926h0v.558a3,3,0,0,1-3.015,3.039Z" transform="translate(-80.109 -124.549)" fill="#083863"/>
        <path id="Path_11" data-name="Path 11" d="M182.737,145.573a3.091,3.091,0,0,1-2.113-.926,2.8,2.8,0,0,1-.926-2.113v-.558a.926.926,0,1,1,1.852,0h0v.558a1.144,1.144,0,0,0,.368.807.968.968,0,0,0,.807.368,1.17,1.17,0,0,0,1.175-1.175h0v-.558a.926.926,0,0,1,1.852,0h0v.558a3,3,0,0,1-3.015,3.039Z" transform="translate(-158.365 -124.549)" fill="#083863"/>
        <path id="Path_12" data-name="Path 12" d="M45.823,33.343a14.031,14.031,0,0,0-11.207,5.58,9.489,9.489,0,0,0-4.974-1.52H24.182V35.86a12.594,12.594,0,0,0,8-11.159h.19a3.407,3.407,0,0,0,3.407-3.407,3.249,3.249,0,0,0-.926-2.362,3.451,3.451,0,0,0-2.481-1h-.119V12.592h2.172c.5,0,.926-.617.926-1.116A9.424,9.424,0,0,0,26.046,2.05H17.368a5.006,5.006,0,0,0-3.6,1.614,3.206,3.206,0,0,0-.677.926,7.88,7.88,0,0,0-7.443,6.826c-.107,1.638,0,6.577,0,6.577H5.71a3.013,3.013,0,0,0-2.291,1,3.166,3.166,0,0,0-1,2.362A3.407,3.407,0,0,0,5.829,24.76h.119A13.153,13.153,0,0,0,9.794,33.2a11.162,11.162,0,0,0,4.464,2.849V37.4H9.117A9.341,9.341,0,0,0,0,46.9V58.557c0,.5.19,1.175.677,1.175H38.511c.119,0,.19-.119.309-.19a13.734,13.734,0,0,0,6.85,1.864h.142a14.032,14.032,0,0,0,.012-28.064ZM5.58,22.825A1.367,1.367,0,0,1,4.274,21.4v-.071a1.607,1.607,0,0,1,.392-1.092,1.126,1.126,0,0,1,.914-.392ZM26.615,46.093h.059a1.744,1.744,0,0,1,1.365.677,1.88,1.88,0,0,1,.617,1.425,2.045,2.045,0,0,1-2.042,1.983,1.978,1.978,0,0,1-1.365-.617,2.051,2.051,0,0,1-.558-1.425,1.979,1.979,0,0,1,1.923-2.042Zm5.758-26.236a1.467,1.467,0,0,1,1.116.439,1.444,1.444,0,0,1,.5,1.057,1.62,1.62,0,0,1-1.614,1.555h-.119V19.869h.119ZM14.459,6.027a5.375,5.375,0,0,1,.617-1,3.289,3.289,0,0,1,2.291-1.116h8.678A7.667,7.667,0,0,1,33.43,10.74H17.178a3.224,3.224,0,0,1-3.039-3.288A3.25,3.25,0,0,1,14.459,6.027Zm-7.016,5.58a5.911,5.911,0,0,1,4.772-4.962,2.631,2.631,0,0,0,0,.748,4.957,4.957,0,0,0,3.039,4.713,10.127,10.127,0,0,1-7.811,3.538C7.443,15.631,7.36,12.6,7.443,11.606Zm3.478,20.217a11.431,11.431,0,0,1-3.478-8V17.495h.19a13.015,13.015,0,0,0,9.984-4.962H30.391v11.29a11.411,11.411,0,0,1-7.313,10.6,11.891,11.891,0,0,1-12.156-2.6Zm7.063,26.046H1.864V46.9A7.319,7.319,0,0,1,8.69,39.516v2.6A5.272,5.272,0,0,0,6.327,43.35a4.615,4.615,0,0,0-1.365,3.288V51.91a1,1,0,0,0,.926,1H7.443a.926.926,0,1,0,0-1.852H6.826v-4.4a2.779,2.779,0,0,1,.867-1.983,2.724,2.724,0,0,1,1.923-.807,2.787,2.787,0,0,1,2.79,2.79v4.4H11.6a.926.926,0,1,0,0,1.852h1.864a.932.932,0,0,0,.807-1V46.639a4.38,4.38,0,0,0-3.716-4.594v-2.79h4.214L18,43.1V57.869h-.012ZM16.133,38.151V36.6a12.175,12.175,0,0,0,2.849.368,9.7,9.7,0,0,0,3.348-.439v1.615l-3.229,3.3Zm3.716,19.718V43.113l4.1-3.846h1.484v5.212a4.326,4.326,0,0,0-2.79,3.716A4.163,4.163,0,0,0,26.6,52.04a3.78,3.78,0,0,0,3.834-3.728A3.741,3.741,0,0,0,29.2,45.475a2.555,2.555,0,0,0-1.923-1V39.267h2.374a7.559,7.559,0,0,1,3.953,1.223,14.035,14.035,0,0,0,1.876,16.359c.273.344.57.689.867,1.021Z" transform="translate(0 -2.05)" fill="#083863"/>
      </g>
      <g id="Group_3" data-name="Group 3" transform="translate(35.282 39.626)">
        <path id="Path_13" data-name="Path 13" d="M357.987,351.95a3.787,3.787,0,1,1-3.787,3.787h0A3.8,3.8,0,0,1,357.987,351.95Z" transform="translate(-347.433 -350.039)" fill="#00efd1"/>
        <path id="Path_14" data-name="Path 14" d="M318.117,341.18a.441.441,0,0,1,.154.594.477.477,0,0,1-.154.154l-1.733,1.793a12.275,12.275,0,0,1-17.237,0l-1.8-1.8a.562.562,0,0,1,0-.748l1.8-1.733a12.152,12.152,0,0,1,17.19-.047l.048.047Zm-6.577.368a3.787,3.787,0,1,0-3.787,3.787h0A3.79,3.79,0,0,0,311.54,341.548Z" transform="translate(-297.2 -335.85)" fill="#00efd1"/>
      </g>
      <path id="Path_15" data-name="Path 15" d="M296.91,282.65a12.014,12.014,0,1,1-6.755,21.974,11.828,11.828,0,0,1-5.259-9.948,11.957,11.957,0,0,1,11.9-12.014.444.444,0,0,1,.119-.012Zm9.556,12.358a.405.405,0,0,0,.142-.546.41.41,0,0,0-.142-.142l-1.6-1.6a11.213,11.213,0,0,0-15.86-.048l-.048.048-1.662,1.6a.511.511,0,0,0,0,.689l1.662,1.662a11.336,11.336,0,0,0,15.908,0Z" transform="translate(-251.075 -249.339)" fill="#00acea"/>
      <g id="Group_4" data-name="Group 4" transform="translate(34.37 38.695)">
        <path id="Path_16" data-name="Path 16" d="M300.99,341.266a13.16,13.16,0,0,1-9.3-3.787l-1.8-1.8a1.61,1.61,0,0,1,0-2.042l1.8-1.8a13.141,13.141,0,0,1,18.543,0l1.8,1.8a1.366,1.366,0,0,1,.059,1.923l-.059.059-1.8,1.864A13.2,13.2,0,0,1,300.99,341.266Zm-9.426-6.636,1.484,1.484a11.228,11.228,0,0,0,15.872,0h0l1.484-1.484-1.484-1.484a11.17,11.17,0,0,0-15.789-.1l-.095.1Z" transform="translate(-289.525 -328)" fill="#083863"/>
        <path id="Path_17" data-name="Path 17" d="M351.113,353.576a4.713,4.713,0,1,1,0-9.426h0a4.713,4.713,0,0,1,0,9.426Zm0-7.562a2.88,2.88,0,1,0,.059,0Z" transform="translate(-339.648 -342.233)" fill="#083863"/>
      </g>
    </g>
    <text id="TECHNICAL" transform="translate(220 335)" fill="#00acea" font-size="26" font-family="SegoeUI-Bold, Segoe UI" font-weight="700"><tspan x="0" y="0">TECHNICAL</tspan></text>
    <text id="DOCUMENTATION" transform="translate(220 364)" fill="#00efd1" font-size="26" font-family="SegoeUI, Segoe UI"><tspan x="0" y="0">DOCUMENTATION</tspan></text>
  </g>
</svg>
